PathFileType	4	(X/Y/Z)	C:/Users/opensim2020/Desktop/walking_exp_matlab/subject03_walking05_straight_03.trc																																																																																																																																					
DataRate	CameraRate	NumFrames	NumMarkers	Units	OrigDataRate	OrigDataStartFrame	OrigNumFrames																																																																																																																																	
100	100	7	45	mm	100	2111	293																																																																																																																																	
Frame#	Time	LFHD			RFHD			LBHD			RBHD			C7			T10			CLAV			STRN			RBAK			LSHO			LUPA			LELB			LFRM			LWRA			LWRB			LFIN			RSHO			RUPA			RELB			RFRM			RWRA			RWRB			RFIN			LASI			RASI			LPSI			RPSI			LTHI			LKNE			LTIB			LANK			LHEE			LTOE			RTHI			RKNE			RTIB			RANK			RHEE			RTOE			*39			*40			*41			*42			*43			*44		
		X1	Y1	Z1	X2	Y2	Z2	X3	Y3	Z3	X4	Y4	Z4	X5	Y5	Z5	X6	Y6	Z6	X7	Y7	Z7	X8	Y8	Z8	X9	Y9	Z9	X10	Y10	Z10	X11	Y11	Z11	X12	Y12	Z12	X13	Y13	Z13	X14	Y14	Z14	X15	Y15	Z15	X16	Y16	Z16	X17	Y17	Z17	X18	Y18	Z18	X19	Y19	Z19	X20	Y20	Z20	X21	Y21	Z21	X22	Y22	Z22	X23	Y23	Z23	X24	Y24	Z24	X25	Y25	Z25	X26	Y26	Z26	X27	Y27	Z27	X28	Y28	Z28	X29	Y29	Z29	X30	Y30	Z30	X31	Y31	Z31	X32	Y32	Z32	X33	Y33	Z33	X34	Y34	Z34	X35	Y35	Z35	X36	Y36	Z36	X37	Y37	Z37	X38	Y38	Z38	X39	Y39	Z39	X40	Y40	Z40	X41	Y41	Z41	X42	Y42	Z42	X43	Y43	Z43	X44	Y44	Z44	X45	Y45	Z45
																																																																																																																																								
1	0	-1374.8623	1618.49854	-1097.77515	-1404.91064	1624.08093	-968.08386	-1494.59998	1558.35498	-1119.1991	-1519.53589	1564.52588	-990.84229	-1529.06006	1417.82935	-1077.31909	-1576.86304	1106.29919	-1086.66003	-1412.47119	1338.51257	-1037.97864	-1378.82422	1170.20215	-1031.92883	-1614.32141	1248.57434	-1000.57245	-1405.27576	1376.46399	-1198.5459	-1354.724	1193.69287	-1275.94983	-1308.38025	1080.87549	-1290.32043	-1240.22241	971.7207	-1282.24902	-1187.03003	866.80042	-1246.37085	-1196.86694	867.17102	-1300.57715	-1149.33276	799.90527	-1288.61597	-1504.18225	1367.03821	-899.07507	-1558.38818	1153.30286	-822.91815	-1569.7207	1043.65283	-797.24774	-1586.21545	908.62292	-779.04962	-1567.41248	805.03583	-789.34827	-1614.8092	811.95532	-765.38629	-1609.4845	736.99457	-760.67432	-1404.52759	920.85455	-1148.96997	-1460.43103	943.4798	-919.82684	-1571.24707	968.92786	-1137.45276	-1604.9906	982.81506	-994.51514	-1502.17273	629.55115	-1206.83508	-1534.729	457.02002	-1170.63147	-1614.23645	277.13022	-1195.38538	-1691.95862	75.37955	-1171.69873	-1717.5647	29.98604	-1139.81897	-1525.51624	28.39567	-1129.33105	-1478.17932	653.51141	-876.69873	-1430.354	479.79663	-904.94995	-1494.39648	295.02704	-912.45197	-1538.7085	85.3198	-966.50116	-1575.25989	54.884	-1028.44214	-1407.43677	41.14726	-950.05438	NaN	NaN	NaN	NaN	NaN	NaN	NaN	NaN	NaN	NaN	NaN	NaN	NaN	NaN	NaN	NaN	NaN	NaN
2	0.01	-1371.15881	1618.15503	-1098.91296	-1401.52979	1623.82019	-969.30432	-1491.00781	1557.95496	-1120.56104	-1516.83435	1564.16028	-991.88678	-1525.26758	1417.56274	-1078.35742	-1573.76233	1106.22034	-1087.72339	-1408.70471	1338.2666	-1039.1322	-1375.44287	1169.6814	-1033.49133	-1610.56555	1248.43616	-1001.66626	-1401.5614	1376.17041	-1199.55603	-1350.05273	1193.3053	-1275.85254	-1303.53748	1080.93652	-1290.04871	-1233.36584	972.92444	-1279.92273	-1178.34851	870.09546	-1242.22766	-1188.17419	869.02039	-1296.33154	-1139.25439	802.88184	-1282.76086	-1500.32715	1366.83301	-900.11536	-1557.09949	1153.55664	-824.97119	-1570.17627	1043.90088	-800.00305	-1588.24097	908.99109	-782.50812	-1570.21106	805.23254	-792.92889	-1617.88782	812.49597	-769.60046	-1613.49792	737.52301	-765.38879	-1402.12524	920.39404	-1150.58838	-1456.94067	943.35492	-921.29364	-1568.8606	968.65784	-1138.28613	-1601.43127	982.45605	-995.45996	-1501.11279	629.23322	-1207.71033	-1534.20117	456.82407	-1171.03333	-1615.81763	276.44141	-1195.06982	-1695.1897	75.68729	-1171.29089	-1717.59937	30.15958	-1139.82581	-1525.6062	28.30186	-1129.3844	-1473.42725	653.78387	-877.39282	-1424.81592	480.36517	-905.93024	-1486.10144	294.72339	-912.27271	-1527.18225	84.05106	-965.2392	-1563.24902	53.4507	-1026.71741	-1395.03137	41.03118	-949.65771	NaN	NaN	NaN	NaN	NaN	NaN	NaN	NaN	NaN	NaN	NaN	NaN	NaN	NaN	NaN	NaN	NaN	NaN
3	0.02	-1367.21301	1617.59375	-1099.49243	-1397.81335	1623.57642	-970.4892	-1487.17517	1557.44385	-1121.67969	-1513.18994	1563.76184	-993.07007	-1521.38403	1417.29565	-1079.2843	-1570.62463	1106.1051	-1088.67773	-1404.80579	1337.63232	-1040.35791	-1374.16577	1170.08032	-1037.71643	-1606.54688	1248.22424	-1002.6795	-1397.74731	1375.78564	-1200.51013	-1345.7384	1192.9823	-1275.93469	-1298.70557	1080.59058	-1289.27759	-1226.95471	974.03375	-1277.66931	-1170.10986	873.21924	-1237.91187	-1179.92822	870.79053	-1292.05664	-1129.94214	805.87732	-1276.94617	-1496.31189	1366.48828	-900.95313	-1555.32874	1153.573	-827.21655	-1570.26978	1044.15186	-802.71918	-1589.77917	909.26898	-785.95398	-1572.52173	805.43024	-796.64575	-1620.56995	812.99469	-773.95361	-1616.56873	737.71124	-770.11615	-1399.24585	919.65277	-1152.62061	-1452.84973	943.2829	-922.36749	-1566.25403	968.30225	-1139.12988	-1598.18774	982.28778	-996.13721	-1499.77246	629.02942	-1208.52881	-1533.16602	456.58154	-1171.91748	-1615.62256	276.39755	-1195.33606	-1696.64392	76.64004	-1171.46484	-1717.42126	30.17025	-1139.9231	-1525.64526	28.21187	-1129.39526	-1468.65198	653.99634	-878.02063	-1419.13806	480.9801	-906.75574	-1477.49866	294.37921	-912.01563	-1515.03918	82.66692	-964.22375	-1551.41016	51.84552	-1025.10071	-1382.27979	40.82798	-949.36798	NaN	NaN	NaN	NaN	NaN	NaN	NaN	NaN	NaN	NaN	NaN	NaN	NaN	NaN	NaN	NaN	NaN	NaN
4	0.03	-1363.43506	1617.20117	-1100.698	-1394.18799	1623.26831	-971.44934	-1483.22156	1556.89661	-1122.72253	-1509.33215	1563.32678	-994.16577	-1517.31152	1416.97546	-1080.09485	-1567.40576	1105.93848	-1089.48657	-1400.74524	1337.17126	-1041.1095	-1371.10901	1169.45898	-1039.47083	-1602.67358	1247.89319	-1003.53888	-1393.7937	1375.34119	-1201.35925	-1341.65295	1192.67297	-1276.25317	-1294.26379	1080.38489	-1288.77649	-1221.20667	975.42352	-1275.62048	-1162.25159	876.29547	-1233.63062	-1171.99329	872.44739	-1287.72778	-1120.90991	808.75653	-1271.0094	-1492.2981	1366.14282	-901.74396	-1553.46301	1153.67175	-829.18945	-1569.85437	1044.17224	-805.44525	-1590.79199	909.45313	-789.45477	-1574.22131	805.45056	-800.33014	-1622.48047	813.25244	-778.4223	-1619.46765	738.15143	-774.64923	-1397.18823	919.39154	-1153.53198	-1449.3844	942.92902	-923.7356	-1563.78723	968.04999	-1139.78125	-1594.95728	982.11603	-996.70935	-1498.54858	628.65436	-1209.34814	-1534.10315	455.83386	-1172.91235	-1615.12122	276.41724	-1195.60547	-1697.79199	77.65633	-1171.64233	-1717.7113	30.7677	-1139.30103	-1525.58752	28.16134	-1129.45911	-1463.86438	654.14423	-878.57001	-1413.29382	481.56113	-907.49597	-1468.56677	294.08374	-911.52661	-1502.53235	81.70148	-962.60083	-1539.09338	50.27545	-1023.34534	-1369.13452	40.7322	-949.11462	NaN	NaN	NaN	NaN	NaN	NaN	NaN	NaN	NaN	NaN	NaN	NaN	NaN	NaN	NaN	NaN	NaN	NaN
5	0.04	-1359.64136	1616.89246	-1101.89014	-1390.25232	1622.87537	-972.39575	-1479.19031	1556.30505	-1123.62622	-1505.3103	1562.77795	-995.1366	-1513.16162	1416.60266	-1080.78491	-1564.1239	1105.79333	-1090.14063	-1396.57373	1336.63696	-1041.48926	-1363.81396	1168.28979	-1036.29504	-1598.57874	1247.68738	-1004.26147	-1389.75317	1374.89453	-1202.18262	-1337.55676	1192.03296	-1276.29578	-1289.94275	1079.9281	-1288.28052	-1215.29248	976.20135	-1273.36914	-1154.81909	879.20197	-1229.42981	-1164.52161	873.99652	-1283.39111	-1112.11804	811.48804	-1264.9364	-1488.11157	1365.74683	-902.38989	-1551.34839	1153.63159	-831.07556	-1568.87012	1044.10168	-808.06354	-1591.25427	909.49127	-792.98969	-1575.38904	805.33289	-804.47784	-1623.87085	813.6156	-782.59241	-1621.20679	738.32739	-779.31177	-1394.31982	918.95837	-1155.07971	-1445.74915	942.63989	-925.19409	-1560.99011	967.57489	-1140.42017	-1591.39697	981.72168	-997.26886	-1496.97925	628.26404	-1210.14832	-1531.72131	456.16269	-1173.19128	-1614.59009	276.35699	-1195.89856	-1698.91077	78.59266	-1171.84314	-1717.62817	30.90954	-1139.30933	-1525.86365	28.08151	-1129.49048	-1459.07874	654.18982	-879.10394	-1407.46057	482.15338	-908.12085	-1459.47388	293.7442	-910.99628	-1490.05762	80.73653	-960.79749	-1526.21594	48.60091	-1021.37616	-1355.64856	40.80878	-949.0722	NaN	NaN	NaN	NaN	NaN	NaN	NaN	NaN	NaN	NaN	NaN	NaN	NaN	NaN	NaN	NaN	NaN	NaN
6	0.05	-1355.54285	1616.32678	-1102.5885	-1386.33984	1622.5249	-973.12207	-1475.08081	1555.67688	-1124.48132	-1501.25366	1562.22168	-995.93494	-1508.98438	1416.3866	-1081.46838	-1560.64282	1105.5741	-1090.69702	-1392.48669	1336.08313	-1042.7804	-1360.82788	1167.11023	-1037.85938	-1594.34692	1247.41907	-1004.85797	-1385.65869	1374.32214	-1202.91235	-1333.57678	1191.30823	-1276.38708	-1285.79382	1079.32495	-1287.6333	-1209.60742	976.76825	-1270.8457	-1147.89148	882.06866	-1225.36877	-1157.32898	875.39459	-1279.01062	-1104.14331	814.20068	-1259.15051	-1483.71008	1365.30249	-902.9267	-1548.9762	1153.55762	-832.76764	-1567.84509	1044.00317	-810.74561	-1591.20776	909.4613	-796.47766	-1576.01074	805.40747	-808.29181	-1624.54309	813.66107	-786.98254	-1622.53418	738.362	-783.97266	-1391.73596	918.34338	-1156.38184	-1441.8468	942.2179	-926.39246	-1558.15259	967.15332	-1140.96448	-1587.79858	981.29938	-997.71014	-1495.22632	627.82043	-1210.89648	-1531.89294	455.46658	-1174.71143	-1613.9043	276.31671	-1196.21301	-1699.87427	79.54901	-1172.06555	-1717.78613	31.3347	-1139.08691	-1525.88953	28.01336	-1129.63123	-1454.33508	654.24316	-879.72595	-1401.55005	482.68307	-908.66486	-1450.13135	293.44592	-910.42102	-1476.78394	79.39989	-959.38824	-1513.1709	47.02061	-1019.34637	-1341.77551	41.02582	-949.04822	NaN	NaN	NaN	NaN	NaN	NaN	NaN	NaN	NaN	NaN	NaN	NaN	NaN	NaN	NaN	NaN	NaN	NaN
7	0.06	-1351.30872	1615.71094	-1103.15088	-1382.16223	1621.93335	-973.81152	-1470.77246	1554.95544	-1125.13513	-1497.08398	1561.54895	-996.59033	-1504.55298	1415.84082	-1081.85925	-1557.08203	1105.37244	-1091.13269	-1388.13586	1335.44019	-1043.45007	-1359.2085	1167.15869	-1042.2262	-1590.0564	1247.16382	-1005.2597	-1381.40833	1373.65991	-1203.5177	-1329.89978	1190.6416	-1276.63354	-1281.77466	1078.56384	-1286.73877	-1204.41309	977.45966	-1268.45166	-1141.18274	884.6839	-1221.18579	-1150.60669	876.66388	-1274.74158	-1096.24768	816.62384	-1253.15369	-1479.11536	1364.67786	-903.35059	-1546.14648	1153.31628	-834.37769	-1565.98645	1043.71997	-813.20221	-1590.5155	909.2627	-799.91766	-1576.03992	805.23285	-812.23779	-1624.49292	813.6344	-791.11389	-1623.02795	738.49469	-788.62061	-1388.84241	917.81647	-1157.67834	-1437.8175	941.69653	-927.5047	-1555.31726	966.75964	-1141.35791	-1584.14978	980.89539	-998.03131	-1493.33911	627.35175	-1211.62341	-1529.8844	454.72717	-1174.14343	-1613.06116	276.26938	-1196.53906	-1700.68054	80.49825	-1172.29932	-1716.54614	34.12912	-1134.47253	-1525.73755	27.99158	-1129.7804	-1449.86938	654.17114	-879.35199	-1395.65649	483.14655	-909.09967	-1440.56738	293.09143	-909.7981	-1463.63757	78.36587	-957.90173	-1499.76489	45.48744	-1017.11261	-1327.57825	41.28019	-949.06616	NaN	NaN	NaN	NaN	NaN	NaN	NaN	NaN	NaN	NaN	NaN	NaN	NaN	NaN	NaN	NaN	NaN	NaN
